<svg width="28" height="24" viewBox="0 0 28 24" fill="none" xmlns="http://www.w3.org/2000/svg">
<path d="M0.666016 1.99967C0.666016 1.55765 0.841611 1.13372 1.15417 0.821163C1.46673 0.508603 1.89065 0.333008 2.33268 0.333008H25.666C26.108 0.333008 26.532 0.508603 26.8445 0.821163C27.1571 1.13372 27.3327 1.55765 27.3327 1.99967C27.3327 2.4417 27.1571 2.86562 26.8445 3.17819C26.532 3.49075 26.108 3.66634 25.666 3.66634H2.33268C1.89065 3.66634 1.46673 3.49075 1.15417 3.17819C0.841611 2.86562 0.666016 2.4417 0.666016 1.99967Z" fill="#001C36"/>
<path d="M0.666016 21.9997C0.666016 21.5576 0.841611 21.1337 1.15417 20.8212C1.46673 20.5086 1.89065 20.333 2.33268 20.333H25.666C26.108 20.333 26.532 20.5086 26.8445 20.8212C27.1571 21.1337 27.3327 21.5576 27.3327 21.9997C27.3327 22.4417 27.1571 22.8656 26.8445 23.1782C26.532 23.4908 26.108 23.6663 25.666 23.6663H2.33268C1.89065 23.6663 1.46673 23.4908 1.15417 23.1782C0.841611 22.8656 0.666016 22.4417 0.666016 21.9997Z" fill="#001C36"/>
<path d="M12.3327 10.333C11.8907 10.333 11.4667 10.5086 11.1542 10.8212C10.8416 11.1337 10.666 11.5576 10.666 11.9997C10.666 12.4417 10.8416 12.8656 11.1542 13.1782C11.4667 13.4907 11.8907 13.6663 12.3327 13.6663H25.666C26.108 13.6663 26.532 13.4907 26.8445 13.1782C27.1571 12.8656 27.3327 12.4417 27.3327 11.9997C27.3327 11.5576 27.1571 11.1337 26.8445 10.8212C26.532 10.5086 26.108 10.333 25.666 10.333H12.3327Z" fill="#001C36"/>
</svg>
