<svg xmlns="http://www.w3.org/2000/svg" viewBox="0 0 47.99998 60" x="0px" y="0px"><g data-name="research"><path d="M28.57518,39.695c1.36642,1.85063-.32645,4.36516-2.55012,4.26995L7.33519,43.965c-2.20854.08885-3.919-2.4169-2.54-4.27008L10.9951,31.015h11.38ZM14.26512,29.015h6.99a7.56716,7.56716,0,0,1-.56006-2.77v-9.27a.9965.9965,0,0,0-1-1h-6a1.003,1.003,0,0,0-1,1V26.215a7.53056,7.53056,0,0,1-.57,2.8Zm19.43262-11.0371h9a1.00044,1.00044,0,0,0-.00007-2.00049H33.69774A1.00044,1.00044,0,0,0,33.69774,17.97791Zm-6.293-3.20752a1.00008,1.00008,0,0,0-1.414,1.4141l.7928.79268-.79285.79273A.99989.99989,0,0,0,27.40477,19.184l.793-.79285.793.79285a.99989.99989,0,1,0,1.41407-1.41406l-.79285-.79273.79285-.79272a.99989.99989,0,1,0-1.41407-1.41406l-.793.79284Zm15.293,17.20654h-9a1.00019,1.00019,0,0,0,.00006,2h8.99994A1.00019,1.00019,0,0,0,42.69774,31.97693ZM30.21238,29.59216,28.24083,31.563l-.45911-.45911a1.00009,1.00009,0,0,0-1.414,1.41411l1.166,1.166a.99965.99965,0,0,0,1.41407,0c.65127-.64919,2.02075-2.02108,2.67872-2.67774A1.00009,1.00009,0,0,0,30.21238,29.59216Zm12.48536-5.61523h-9a1.00019,1.00019,0,0,0,.00006,2h8.99994A1.00019,1.00019,0,0,0,42.69774,23.97693Zm-12.293-1.207a.99964.99964,0,0,0-1.41407,0l-.793.793-.793-.793A.99989.99989,0,0,0,25.9907,24.184l.793.793-.793.793A.99989.99989,0,0,0,27.40477,27.184l.793-.793.793.793a.99989.99989,0,1,0,1.41407-1.41406l-.793-.793.793-.793A.99964.99964,0,0,0,30.40477,22.7699ZM25.03609,11.19579A2.85088,2.85088,0,0,0,25.036,5.49422,2.85088,2.85088,0,0,0,25.03609,11.19579ZM9.91382,8.64479a1.95508,1.95508,0,0,0-.00008-3.90963A1.95508,1.95508,0,0,0,9.91382,8.64479Zm6.37669,5.16594a1.41973,1.41973,0,0,0-.00006-2.83917A1.41973,1.41973,0,0,0,16.29051,13.81073Z"/></g><text x="0" y="63" fill="#000000" font-size="5px" font-weight="bold" font-family="'Helvetica Neue', Helvetica, Arial-Unicode, Arial, Sans-serif">Created by Zky Icon</text><text x="0" y="68" fill="#000000" font-size="5px" font-weight="bold" font-family="'Helvetica Neue', Helvetica, Arial-Unicode, Arial, Sans-serif">from the Noun Project</text></svg>