<?xml version="1.0" encoding="UTF-8" standalone="no"?>
<!-- Uploaded to: SVG Repo, www.svgrepo.com, Generator: SVG Repo Mixer Tools -->

<svg
   fill="#000000"
   version="1.1"
   id="Capa_1"
   width="800px"
   height="800px"
   viewBox="0 0 45.311 45.311"
   xml:space="preserve"
   sodipodi:docname="others.svg"
   inkscape:version="1.1 (c68e22c387, 2021-05-23)"
   xmlns:inkscape="http://www.inkscape.org/namespaces/inkscape"
   xmlns:sodipodi="http://sodipodi.sourceforge.net/DTD/sodipodi-0.dtd"
   xmlns="http://www.w3.org/2000/svg"
   xmlns:svg="http://www.w3.org/2000/svg"><defs
   id="defs9" /><sodipodi:namedview
   id="namedview7"
   pagecolor="#ffffff"
   bordercolor="#666666"
   borderopacity="1.0"
   inkscape:pageshadow="2"
   inkscape:pageopacity="0.0"
   inkscape:pagecheckerboard="0"
   showgrid="false"
   inkscape:zoom="0.515"
   inkscape:cx="423.30097"
   inkscape:cy="707.76699"
   inkscape:window-width="1920"
   inkscape:window-height="1009"
   inkscape:window-x="-8"
   inkscape:window-y="-8"
   inkscape:window-maximized="1"
   inkscape:current-layer="Capa_1" />
<g
   id="g4"
   transform="matrix(0.80974529,0,0,0.80974529,4.3102204,4.3295753)">
	<path
   d="m 22.675,0.02 c -0.006,0 -0.014,0.001 -0.02,0.001 -0.007,0 -0.013,-0.001 -0.02,-0.001 C 10.135,0.02 0,10.154 0,22.656 c 0,12.5 10.135,22.635 22.635,22.635 0.007,0 0.013,0 0.02,0 0.006,0 0.014,0 0.02,0 12.5,0 22.635,-10.135 22.635,-22.635 C 45.311,10.154 35.176,0.02 22.675,0.02 Z m 0,38.791 c -0.006,0 -0.014,-10e-4 -0.02,-10e-4 -0.007,0 -0.013,10e-4 -0.02,10e-4 -2.046,0 -3.705,-1.658 -3.705,-3.705 0,-2.045 1.659,-3.703 3.705,-3.703 0.007,0 0.013,0 0.02,0 0.006,0 0.014,0 0.02,0 2.045,0 3.706,1.658 3.706,3.703 0,2.046 -1.658,3.705 -3.706,3.705 z m 5.313,-28.233 c -0.242,3.697 -1.932,14.692 -1.932,14.692 0,1.854 -1.519,3.356 -3.373,3.356 -0.01,0 -0.02,0 -0.029,0 -0.009,0 -0.02,0 -0.029,0 -1.853,0 -3.372,-1.504 -3.372,-3.356 0,0 -1.689,-10.995 -1.931,-14.692 -0.12,-1.851 1.298,-5.288 5.304,-5.288 0.01,0 0.02,0.001 0.029,0.001 0.009,0 0.019,-0.001 0.029,-0.001 4.005,0 5.425,3.437 5.304,5.288 z"
   id="path2" />
</g>
</svg>
